<?xml version="1.0" encoding="utf-8"?>
<!-- Generator: Adobe Illustrator 19.2.1, SVG Export Plug-In . SVG Version: 6.00 Build 0)  -->
<svg version="1.1" id="layer" xmlns="http://www.w3.org/2000/svg" xmlns:xlink="http://www.w3.org/1999/xlink" x="0px" y="0px"
	 viewBox="0 0 652 652" style="enable-background:new 0 0 652 652;" xml:space="preserve">
<path d="M372.8,350.3c-10.5-7.8-15.1-21.9-11.4-44c0.1-0.7,0.4-1.9,0.8-3.5c-2.2-0.9-4.7-1.2-7.5-1.2c-24.9,0-38.7,41.9-38.7,80.9
	c0,20.3,7.9,30.6,19.8,30.6C352.3,413.1,367.4,384.5,372.8,350.3 M578,311c0,0-11.9,57.2-11.9,78.4c0,14.7,6.8,19.7,15.3,19.7
	c10.7,0,20.5-6.8,29.7-23.5c2.1-3.8,9.8-1.4,13.8,3.2c1.8,2-0.3,6.1-3,10.8c-13.9,23.4-33.4,36.3-53.8,36.3
	c-22.2,0-35.8-10.3-39.2-36.5c-12.7,20-33.1,36.5-56.4,36.5c-28.4,0-40.4-15.7-40.4-43.9c0-18.6,6.3-50.2,6.3-50.2
	c-8.3,7.5-17.9,12.9-29,15.1c-10.9,51.1-40.1,78.9-79.2,78.9c-33.2,0-56-17.4-56-59.3c0-51.6,32.9-97.7,84.5-97.7
	c29.4,0,50.7,15.8,52.6,52.5c12.1-2,23.2-10.3,33-22.1c4.4-27.7,10.6-59.3,14.4-77.1c0.8-3.7,2.1-10.7,8.8-12.7
	c7.4-2.3,17.9-2.7,29-0.5c6.2,1.2,7.7,7,7.7,12.1c0,13.7-6.5,43.8-17.7,70.9c-8,30.2-13.5,60.4-13.5,84.2c0,17.2,5.7,22.9,15.3,22.9
	c15.6,0,33.7-21.7,42.4-51c1.4-14.1,4.9-36.8,6.7-45.3c-9.7,0.5-15.8,0.7-15.8,0.7c-5,0.2-9.9-1.9-9.7-6.4
	c0.3-5.9,1.1-11.6,2.1-15.6c1-4,3.3-6.5,8.1-6.6c5.2-0.1,12.7,0,20.4,0.2c2.6-14.9,4.8-26.5,6.9-36.2c0.8-3.9,4.5-6.1,8.2-6.5
	c4.5-0.5,17.7-0.4,23.5,1c5.8,1.4,8.3,6,7.3,10.6c-2.1,9.4-6.3,32.5-6.3,32.5c13,0.6,25.9,1.2,38.9,1.9c6.2,0.3,9.4,3.8,8.4,9.3
	c-1.7,9.2-8.5,12.2-18.2,12.4C600,310.3,588.4,310.6,578,311 M278.9,237.2c0,64.4-34.5,198.2-88,198.2c-40.3,0-48.5-45.1-50.5-102.6
	c-20.2,44.1-30.9,67.1-44.3,90c-6.3,10.8-13.9,13.1-22.2,13.1c-7.3,0-26.1-2.4-30.5-5.2c-4.4-2.7-6.8-5.2-8.9-15.6
	C24.5,367,31,304.8,40.8,255.2c1.7-8.7,3.9-12.9,9.9-16.8c6.4-4.2,20.5-4.5,29.7-4.6c4.9-0.1,7.7,3.4,6.5,9.4
	C78.1,286.5,67.7,345.8,75.8,407c0,0,30.8-61,62.7-137c6.4-15.2,7.8-20.3,13.9-21.6c8-1.8,13.7-1.8,21.8-0.8c5.3,0.6,8,2,7.8,9.4
	c-0.6,19.8-1.9,42.2-1.9,65.5c0,39.4,4.2,83.6,19.4,83.6c20.3,0,38.2-94.7,31.9-176c-0.4-5.6,1.6-11.3,7.6-11.9
	c3-0.3,9.1-0.7,15.9-0.7C270.5,217.4,278.9,220.2,278.9,237.2"/>
</svg>
